<svg width="33" height="33" viewBox="0 0 33 33" fill="none" xmlns="http://www.w3.org/2000/svg">
<path d="M5.12938 16.8088C5.12938 18.0089 4.15553 18.9824 2.95538 18.9824C1.75522 18.9824 0.78125 18.0089 0.78125 16.8088C0.78125 15.6088 1.75522 14.6353 2.95538 14.6353C4.15553 14.6353 5.12938 15.6088 5.12938 16.8088ZM16.8104 5.12773C18.0104 5.12773 18.9844 4.15389 18.9844 2.95379C18.9844 1.75363 18.0104 0.779663 16.8104 0.779663C15.6104 0.779663 14.6365 1.75363 14.6365 2.95379C14.6365 4.15389 15.6104 5.12773 16.8104 5.12773ZM26.5495 9.24365C27.7498 9.24365 28.7238 8.26968 28.7238 7.06959C28.7238 5.86955 27.7498 4.89559 26.5495 4.89559C25.3495 4.89559 24.3755 5.86955 24.3755 7.06959C24.3756 8.26968 25.3495 9.24365 26.5495 9.24365ZM7.01318 24.4322C5.81302 24.4322 4.83962 25.4056 4.83962 26.6058C4.83962 27.8059 5.81302 28.7803 7.01318 28.7803C8.21322 28.7803 9.18718 27.8059 9.18718 26.6058C9.18718 25.4056 8.21322 24.4322 7.01318 24.4322ZM30.6074 14.6353C30.1995 14.6353 29.8193 14.7499 29.4928 14.9457C27.8302 13.9413 25.0719 12.4106 21.1315 10.6504C16.4549 8.55987 11.7799 7.38332 9.17785 6.83031C9.08555 5.71506 8.15197 4.83747 7.01312 4.83747C5.81296 4.83747 4.83956 5.81144 4.83956 7.0116C4.83956 8.21163 5.81296 9.18554 7.01312 9.18554C7.46726 9.18554 7.88921 9.04545 8.23814 8.8068C9.62147 9.90676 11.7404 12.1302 13.675 16.3745C15.8851 21.224 16.3923 25.8538 16.4804 28.4595C15.4372 28.6191 14.6363 29.5189 14.6363 30.6064C14.6363 31.8063 15.6103 32.7798 16.8103 32.7798C18.0103 32.7798 18.9843 31.8063 18.9843 30.6064C18.9843 29.8293 18.5749 29.1491 17.9613 28.7641C17.9108 26.1024 17.4405 21.1099 15.006 15.768C13.9072 13.3561 12.7456 11.5472 11.6648 10.1984C13.3982 11.1812 15.4524 12.5002 17.5942 14.2089C21.6348 17.4315 24.1145 22.1063 25.2911 24.778C24.738 25.172 24.3754 25.8173 24.3754 26.548C24.3754 27.748 25.3494 28.7215 26.5494 28.7215C27.7497 28.7215 28.7237 27.748 28.7237 26.548C28.7237 25.4074 27.8432 24.4732 26.7255 24.3834C25.5359 21.6111 22.9322 16.5946 18.5067 13.0645C16.561 11.513 14.6963 10.2752 13.0624 9.31097C15.3113 9.94965 17.9395 10.8265 20.5343 11.9861C24.2505 13.6464 26.9135 15.1127 28.5565 16.0947C28.4787 16.3187 28.4338 16.5583 28.4338 16.8088C28.4338 18.0089 29.4078 18.9824 30.6073 18.9824C31.8075 18.9824 32.7812 18.0089 32.7812 16.8088C32.7813 15.6088 31.8076 14.6353 30.6074 14.6353Z" fill="#FF9066"/>
</svg>
