<svg width="33" height="40" viewBox="0 0 33 40" fill="none" xmlns="http://www.w3.org/2000/svg">
<path fill-rule="evenodd" clip-rule="evenodd" d="M22.9365 0.903047C25.9659 0.470279 28.6762 2.82094 28.6762 5.88108V8.39811C30.8513 9.54782 32.3334 11.833 32.3334 14.4644V32.75C32.3334 36.5372 29.2634 39.6071 25.4762 39.6071H7.19052C3.40342 39.6071 0.333374 36.5372 0.333374 32.75V7.15007C0.333374 7.13306 0.333685 7.11613 0.334288 7.09929C0.333685 7.07298 0.333374 7.04657 0.333374 7.02011C0.333374 5.36297 1.5519 3.95799 3.1924 3.72364L22.9365 0.903047ZM3.07623 10.3501V32.75C3.07623 35.0224 4.91826 36.8643 7.19052 36.8643H25.4762C27.7484 36.8643 29.5905 35.0224 29.5905 32.75V14.4644C29.5905 12.1921 27.7484 10.3501 25.4762 10.3501H3.07623ZM3.66333 7.60721H25.9334V5.88108C25.9334 4.4901 24.7015 3.42161 23.3244 3.61833L3.5803 6.43892C3.29107 6.48025 3.07623 6.72794 3.07623 7.02011C3.07623 7.34435 3.33909 7.60721 3.66333 7.60721ZM7.64766 19.95C7.64766 19.1926 8.26168 18.5786 9.01909 18.5786H23.6477C24.4051 18.5786 25.0191 19.1926 25.0191 19.95C25.0191 20.7076 24.4051 21.3214 23.6477 21.3214H9.01909C8.26168 21.3214 7.64766 20.7076 7.64766 19.95ZM7.64766 26.35C7.64766 25.5926 8.26168 24.9786 9.01909 24.9786H19.0762C19.8336 24.9786 20.4477 25.5926 20.4477 26.35C20.4477 27.1076 19.8336 27.7214 19.0762 27.7214H9.01909C8.26168 27.7214 7.64766 27.1076 7.64766 26.35Z" fill="#FEC53D"/>
</svg>
